<svg xmlns="http://www.w3.org/2000/svg" xmlns:xlink="http://www.w3.org/1999/xlink" width="100" zoomAndPan="magnify" viewBox="0 0 75.119995 83.04" height="100" preserveAspectRatio="xMidYMid meet" version="1.0"><defs><clipPath id="02967d0161"><path d="M 0 0.0078125 L 74.132812 0.0078125 L 74.132812 74.136719 L 0 74.136719 Z M 0 0.0078125 " clip-rule="nonzero"/></clipPath><clipPath id="62696aa885"><path d="M 0.800781 20 L 73.449219 20 L 73.449219 54 L 0.800781 54 Z M 0.800781 20 " clip-rule="nonzero"/></clipPath></defs><g clip-path="url(#02967d0161)"><path fill="#ffffff" d="M 0 0.0078125 L 74.132812 0.0078125 L 74.132812 74.136719 L 0 74.136719 Z M 0 0.0078125 " fill-opacity="1" fill-rule="nonzero"/><path fill="#d9d9d9" d="M 0 0.0078125 L 74.132812 0.0078125 L 74.132812 74.136719 L 0 74.136719 Z M 0 0.0078125 " fill-opacity="1" fill-rule="nonzero"/></g><g clip-path="url(#62696aa885)"><path fill="#ffffff" d="M 58.003906 53.222656 L 72.324219 38.898438 C 73.320312 37.90625 73.320312 36.269531 72.324219 35.277344 L 58.003906 20.921875 C 57.007812 19.929688 55.375 19.929688 54.382812 20.921875 C 53.386719 21.914062 53.386719 23.550781 54.382812 24.542969 L 64.347656 34.507812 L 3.371094 34.507812 C 1.960938 34.507812 0.804688 35.660156 0.804688 37.070312 C 0.804688 38.480469 1.960938 39.636719 3.371094 39.636719 L 64.316406 39.636719 L 54.347656 49.601562 C 53.835938 50.113281 53.613281 50.753906 53.613281 51.425781 C 53.613281 52.101562 53.867188 52.742188 54.347656 53.253906 C 55.375 54.214844 57.007812 54.214844 58.003906 53.222656 Z M 58.003906 53.222656 " fill-opacity="1" fill-rule="nonzero"/></g></svg>