<svg xmlns="http://www.w3.org/2000/svg" xmlns:xlink="http://www.w3.org/1999/xlink" width="100" zoomAndPan="magnify" viewBox="0 0 75.119995 83.04" height="100" preserveAspectRatio="xMidYMid meet" version="1.0"><defs><clipPath id="f282e3a169"><path d="M 0 0.0078125 L 74.132812 0.0078125 L 74.132812 74.136719 L 0 74.136719 Z M 0 0.0078125 " clip-rule="nonzero"/></clipPath><clipPath id="3f63272e9c"><path d="M 1.089844 16.273438 L 73 16.273438 L 73 57.785156 L 1.089844 57.785156 Z M 1.089844 16.273438 " clip-rule="nonzero"/></clipPath></defs><g clip-path="url(#f282e3a169)"><path fill="#ffffff" d="M 0 0.0078125 L 74.132812 0.0078125 L 74.132812 74.136719 L 0 74.136719 Z M 0 0.0078125 " fill-opacity="1" fill-rule="nonzero"/><path fill="#d9d9d9" d="M 0 0.0078125 L 74.132812 0.0078125 L 74.132812 74.136719 L 0 74.136719 Z M 0 0.0078125 " fill-opacity="1" fill-rule="nonzero"/></g><g clip-path="url(#3f63272e9c)"><path fill="#f6f5f5" d="M 71.09375 57.765625 L 3.03125 57.765625 C 2.78125 57.765625 2.539062 57.71875 2.308594 57.621094 C 2.074219 57.523438 1.871094 57.390625 1.695312 57.210938 C 1.515625 57.035156 1.378906 56.828125 1.285156 56.597656 C 1.1875 56.367188 1.140625 56.125 1.140625 55.875 C 1.140625 55.625 1.1875 55.382812 1.285156 55.152344 C 1.378906 54.917969 1.515625 54.714844 1.695312 54.539062 C 1.871094 54.359375 2.074219 54.222656 2.308594 54.128906 C 2.539062 54.03125 2.78125 53.984375 3.03125 53.984375 L 71.09375 53.984375 C 71.347656 53.984375 71.585938 54.03125 71.820312 54.128906 C 72.050781 54.222656 72.253906 54.359375 72.433594 54.539062 C 72.609375 54.714844 72.746094 54.917969 72.839844 55.152344 C 72.9375 55.382812 72.984375 55.625 72.984375 55.875 C 72.984375 56.125 72.9375 56.367188 72.839844 56.597656 C 72.746094 56.828125 72.609375 57.035156 72.433594 57.210938 C 72.253906 57.390625 72.050781 57.523438 71.820312 57.621094 C 71.585938 57.71875 71.347656 57.765625 71.09375 57.765625 Z M 71.09375 38.90625 L 3.03125 38.90625 C 2.78125 38.90625 2.539062 38.859375 2.308594 38.765625 C 2.074219 38.667969 1.871094 38.53125 1.695312 38.355469 C 1.515625 38.175781 1.378906 37.972656 1.285156 37.742188 C 1.1875 37.507812 1.140625 37.269531 1.140625 37.015625 C 1.140625 36.765625 1.1875 36.523438 1.285156 36.292969 C 1.378906 36.0625 1.515625 35.855469 1.695312 35.679688 C 1.871094 35.503906 2.074219 35.367188 2.308594 35.269531 C 2.539062 35.175781 2.78125 35.125 3.03125 35.125 L 71.09375 35.125 C 71.347656 35.125 71.585938 35.175781 71.820312 35.269531 C 72.050781 35.367188 72.253906 35.503906 72.433594 35.679688 C 72.609375 35.855469 72.746094 36.0625 72.839844 36.292969 C 72.9375 36.523438 72.984375 36.765625 72.984375 37.015625 C 72.984375 37.269531 72.9375 37.507812 72.839844 37.742188 C 72.746094 37.972656 72.609375 38.175781 72.433594 38.355469 C 72.253906 38.53125 72.050781 38.667969 71.820312 38.765625 C 71.585938 38.859375 71.347656 38.90625 71.09375 38.90625 Z M 71.09375 20.054688 L 3.03125 20.054688 C 2.78125 20.054688 2.539062 20.007812 2.308594 19.910156 C 2.074219 19.8125 1.871094 19.675781 1.695312 19.5 C 1.515625 19.324219 1.378906 19.117188 1.285156 18.886719 C 1.1875 18.65625 1.140625 18.414062 1.140625 18.164062 C 1.140625 17.914062 1.1875 17.671875 1.285156 17.441406 C 1.378906 17.207031 1.515625 17.003906 1.695312 16.828125 C 1.871094 16.648438 2.074219 16.511719 2.308594 16.417969 C 2.539062 16.320312 2.78125 16.273438 3.03125 16.273438 L 71.09375 16.273438 C 71.347656 16.273438 71.585938 16.320312 71.820312 16.417969 C 72.050781 16.511719 72.253906 16.648438 72.433594 16.828125 C 72.609375 17.003906 72.746094 17.207031 72.839844 17.441406 C 72.9375 17.671875 72.984375 17.914062 72.984375 18.164062 C 72.984375 18.414062 72.9375 18.65625 72.839844 18.886719 C 72.746094 19.117188 72.609375 19.324219 72.433594 19.5 C 72.253906 19.675781 72.050781 19.8125 71.820312 19.910156 C 71.585938 20.007812 71.347656 20.054688 71.09375 20.054688 Z M 71.09375 20.054688 " fill-opacity="1" fill-rule="nonzero"/></g></svg>